<?xml version="1.0" encoding="UTF-8"?>
<svg width="700px" height="700px" viewBox="0 0 700 700" version="1.1" xmlns="http://www.w3.org/2000/svg">
    <metadata>
        Image made by Lorc under CC BY 3.0 (available on https://game-icons.net)
    </metadata>
    <g stroke="none" stroke-width="1" fill="none" fill-rule="evenodd">
        <g>
            <polygon fill="#000000" points="0 0 700 0 700 700 0 700"/>
            <g transform="translate(16.114121, 17.778107)">
                <polygon fill="#FFFFFF"
                         points="458.687821 217.057584 458.687821 436.635988 350.096951 247.39915 286.219969 283.33123 397.207503 474.962178 203.179892 363.177458 168.047551 427.054441 360.475683 538.83916 137.70343 538.83916 137.70343 612.29769 356.482094 612.29769 273.442017 660.205427 659.100576 660.205427 659.100576 625.870271 635.146708 612.29769 659.100576 612.29769 659.100576 538.83916 629.558749 538.83916 659.100576 522.070175 659.100576 437.433173 598.417443 473.365253 659.100576 367.168492 659.100576 256.183513 643.13133 247.39915 532.143796 440.627022 532.143796 217.057584 458.685266 217.057584"/>
                <path d="M495.417086,290.516113 C338.790725,290.516113 211.961699,418.142324 211.961699,574.768685 C211.961699,604.729545 216.818905,633.267226 225.53428,660.205427 L659.100576,660.205427 L659.100576,343.214624 C612.771878,310.312868 556.524363,290.516113 495.417086,290.516113 Z"
                      fill="#FFFFFF"/>
                <path d="M589.502166,574.467532 C589.502166,626.371406 547.425686,668.447565 495.521417,668.447565 C443.617147,668.447565 401.540667,626.371406 401.540667,574.467532 C401.540667,522.563658 443.617147,480.487499 495.521417,480.487499 C547.425686,480.487499 589.502166,522.563658 589.502166,574.467532 Z"
                      fill="#000000"/>
                <g transform="translate(192.456493, 188.495384) rotate(-6.089859) translate(-192.456493, -188.495384) translate(17.136862, 17.635112)"
                   fill="#FFFFFF">
                    <polygon
                            points="230.758827 0 174.934255 95.8858978 120.960681 0.288660566 56.4405803 37.6300294 110.408203 133.227267 0.613031717 133.524855 0 208.058798 109.798147 207.76121 53.9705981 303.650084 117.880643 340.845635 173.711167 244.947833 229.675606 341.720544 294.198682 304.376199 240.225108 208.781938 350.026231 208.48435 350.639263 133.94743 238.847275 133.084424 294.671848 37.2015024 230.764779 0.00595176424"/>
                    <path d="M284.306518,165.805436 C284.306518,225.665906 235.796114,274.190841 175.956558,274.190841 C116.117001,274.190841 67.606597,225.665906 67.606597,165.805436 C67.606597,105.944966 116.117001,57.4230201 175.956558,57.4230201 C235.796114,57.4230201 284.306518,105.947955 284.306518,165.805436 Z"
                          stroke="#FFFFFF" stroke-width="18.688867"
                          transform="translate(175.956558, 165.806930) rotate(15.206379) translate(-175.956558, -165.806930) "/>
                </g>
                <path d="M252.862181,188.113022 C252.862181,221.363139 225.901946,248.314501 192.649566,248.314501 C159.397185,248.314501 132.436951,221.363139 132.436951,188.113022 C132.436951,154.862906 159.397185,127.907657 192.649566,127.907657 C225.901946,127.907657 252.862181,154.862906 252.862181,188.113022 Z"
                      fill="#000000"
                      transform="translate(192.649566, 188.111079) rotate(-3.491638) translate(-192.649566, -188.111079) "/>
            </g>
        </g>
    </g>
</svg>